#!OML:ASF H:\Dans Jumps\Project 1\Capture day 1\Session 1\subject.ASF
:FULLY-SPECIFIED
:DEGREES
342
root 0.373714 17.2428 -6.89062 8.79296 2.06663 -0.746247
lowerback 5.42979 0.0924426 -0.946947
upperback 5.82303 0.0681378 1.56387
thorax 2.95892 -0.0323722 2.14126
lowerneck -12.9991 -0.743691 -1.80408
upperneck 31.816 -1.09978 1.60307
head 12.7544 -0.484075 0.774822
rclavicle -2.68359e-015 -6.95746e-015
rhumerus -60.8342 -27.7299 -43.3013
rradius 18.1995
rwrist 49.4585
rhand -15.57 -23.2639
rfingers 7.12502
rthumb 10.6149 -52.9758
lclavicle -2.68359e-015 -6.95746e-015
lhumerus -48.2105 0.789894 76.0406
lradius 14.8706
lwrist 2.94042
lhand -24.3129 -3.1205
lfingers 7.12502
lthumb 2.1752 26.8482
rfemur -25.581 -3.98777 18.5883
rtibia 37.8292
rfoot -19.1385 -3.18202
rtoes 5.51444
lfemur -25.2565 5.44052 -19.8868
ltibia 34.934
lfoot -16.1799 6.96564
ltoes 2.35442
343
root 0.370031 17.2455 -6.88231 8.8334 2.0636 -0.754613
lowerback 5.41556 0.103104 -0.938827
upperback 5.82315 0.0826364 1.56048
thorax 2.96631 -0.0248225 2.13281
lowerneck -12.9528 -0.741156 -1.82388
upperneck 31.8321 -1.10371 1.64097
head 12.7517 -0.483377 0.792519
rclavicle 3.27995e-015 -1.59028e-014
rhumerus -60.7191 -27.7075 -43.4536
rradius 18.2283
rwrist 49.5239
rhand -15.8393 -23.2192
rfingers 7.12502
rthumb 10.3552 -52.9443
lclavicle 3.27995e-015 -1.59028e-014
lhumerus -47.8919 0.952664 75.8801
lradius 15.0391
lwrist 3.54705
lhand -25.3547 -4.11438
lfingers 7.12502
lthumb 1.16898 25.8622
rfemur -25.5643 -3.98206 18.6134
rtibia 37.7729
rfoot -19.1337 -3.16699
rtoes 5.54397
lfemur -25.2402 5.39532 -19.8598
ltibia 34.8824
lfoot -16.1558 7.01753
ltoes 2.3542
344
root 0.366181 17.2483 -6.87396 8.86883 2.05468 -0.76501
lowerback 5.40192 0.113116 -0.932928
upperback 5.8222 0.0962401 1.55503
thorax 2.97228 -0.0177411 2.12351
lowerneck -12.9138 -0.736472 -1.83428
upperneck 31.8578 -1.10628 1.6761
head 12.7544 -0.481337 0.807757
rclavicle 3.08116e-015 9.93923e-015
rhumerus -60.5755 -27.6974 -43.624
rradius 18.2499
rwrist 49.5654
rhand -16.0428 -23.2054
rfingers 7.12502
rthumb 10.1589 -52.9401
lclavicle 3.08116e-015 9.93923e-015
lhumerus -47.5695 1.1238 75.7235
lradius 15.2152
lwrist 4.21949
lhand -26.3346 -5.05833
lfingers 7.12502
lthumb 0.22261 24.9213
rfemur -25.5411 -3.97338 18.6409
rtibia 37.7145
rfoot -19.1287 -3.15029
rtoes 5.56762
lfemur -25.2157 5.35272 -19.8294
ltibia 34.8291
lfoot -16.1336 7.0721
ltoes 2.35807
345
root 0.362077 17.2512 -6.86567 8.90001 2.04003 -0.778547
lowerback 5.38821 0.123155 -0.928257
upperback 5.82026 0.109875 1.54775
thorax 2.97728 -0.0106386 2.11301
lowerneck -12.8797 -0.73155 -1.83811
upperneck 31.8887 -1.11072 1.71231
head 12.7603 -0.479218 0.82202
rclavicle -2.78299e-015 -2.5842e-015
rhumerus -60.4083 -27.7015 -43.8084
rradius 18.2622
rwrist 49.5891
rhand -16.1977 -23.1965
rfingers 7.12502
rthumb 10.0094 -52.9385
lclavicle -2.78299e-015 -2.5842e-015
lhumerus -47.2436 1.29212 75.5785
lradius 15.3932
lwrist 4.96269
lhand -27.2316 -5.90856
lfingers 7.12502
lthumb -0.643749 24.0702
rfemur -25.5141 -3.96165 18.6728
rtibia 37.6551
rfoot -19.1236 -3.13474
rtoes 5.57129
lfemur -25.185 5.31405 -19.7942
ltibia 34.774
lfoot -16.1129 7.12679
ltoes 2.36263
346
root 0.35784 17.2542 -6.85741 8.92501 2.01989 -0.791296
lowerback 5.37632 0.133202 -0.927642
upperback 5.81784 0.123439 1.53819
thorax 2.98077 -0.00365743 2.10243
lowerneck -12.8501 -0.725994 -1.83111
upperneck 31.924 -1.11517 1.74219
head 12.7689 -0.476638 0.831975
rclavicle 6.55989e-015 1.39149e-014
rhumerus -60.22 -27.7112 -44.0134
rradius 18.2718
rwrist 49.5835
rhand -16.3143 -23.2041
rfingers 7.12502
rthumb 9.89695 -52.9515
lclavicle 6.55989e-015 1.39149e-014
lhumerus -46.9143 1.45773 75.4447
lradius 15.5664
lwrist 5.76409
lhand -28.0379 -6.64581
lfingers 7.12502
lthumb -1.42254 23.3292
rfemur -25.4818 -3.9493 18.7039
rtibia 37.5967
rfoot -19.1185 -3.1142
rtoes 5.58116
lfemur -25.1452 5.28019 -19.7591
ltibia 34.7158
lfoot -16.0947 7.1803
ltoes 2.37148
347
root 0.353438 17.2571 -6.84924 8.9451 1.99218 -0.799546
lowerback 5.36656 0.144502 -0.935248
upperback 5.8145 0.138471 1.52606
thorax 2.98205 0.00383571 2.09376
lowerneck -12.8223 -0.721794 -1.82141
upperneck 31.9595 -1.12192 1.77075
head 12.7781 -0.474928 0.84062
rclavicle -1.15295e-014 -6.75868e-015
rhumerus -60.0127 -27.7212 -44.2429
rradius 18.2885
rwrist 49.5238
rhand -16.3758 -23.2091
rfingers 7.12502
rthumb 9.83761 -52.9593
lclavicle -1.15295e-014 -6.75868e-015
lhumerus -46.5826 1.62175 75.32
lradius 15.7325
lwrist 6.60564
lhand -28.7212 -7.24045
lfingers 7.12502
lthumb -2.08242 22.7291
rfemur -25.4484 -3.9371 18.7304
rtibia 37.5421
rfoot -19.1138 -3.08789
rtoes 5.59501
lfemur -25.0981 5.25309 -19.7286
ltibia 34.6549
lfoot -16.0762 7.23328
ltoes 2.37423
348
root 0.349001 17.2599 -6.84108 8.96111 1.95558 -0.800962
lowerback 5.3572 0.156643 -0.953682
upperback 5.81064 0.154334 1.51231
thorax 2.98255 0.0113915 2.08948
lowerneck -12.7912 -0.718478 -1.81439
upperneck 31.9901 -1.12862 1.79729
head 12.7845 -0.473809 0.848928
rclavicle 1.49089e-015 5.56597e-015
rhumerus -59.7888 -27.732 -44.4882
rradius 18.3111
rwrist 49.428
rhand -16.413 -23.1981
rfingers 7.12502
rthumb 9.80176 -52.9499
lclavicle 1.49089e-015 5.56597e-015
lhumerus -46.2535 1.79788 75.1974
lradius 15.8913
lwrist 7.44648
lhand -29.3222 -7.75927
lfingers 7.12502
lthumb -2.66293 22.2039
rfemur -25.4147 -3.92657 18.7486
rtibia 37.4929
rfoot -19.1112 -3.05096
rtoes 5.61865
lfemur -25.0447 5.23296 -19.7061
ltibia 34.5917
lfoot -16.0558 7.28783
ltoes 2.37057
349
root 0.344571 17.2625 -6.83292 8.97517 1.91154 -0.795725
lowerback 5.3469 0.168945 -0.983199
upperback 5.80585 0.170087 1.49898
thorax 2.9826 0.0184877 2.09186
lowerneck -12.7589 -0.715509 -1.81419
upperneck 32.0162 -1.13308 1.82106
head 12.7887 -0.472903 0.85765
rclavicle -6.75868e-015 1.05356e-014
rhumerus -59.5417 -27.7262 -44.767
rradius 18.3486
rwrist 49.2747
rhand -16.4269 -23.1712
rfingers 7.12502
rthumb 9.78829 -52.9237
lclavicle -6.75868e-015 1.05356e-014
lhumerus -45.9295 1.99907 75.0701
lradius 16.0426
lwrist 8.24828
lhand -29.824 -8.21217
lfingers 7.12502
lthumb -3.14754 21.7443
rfemur -25.3837 -3.9194 18.7593
rtibia 37.4498
rfoot -19.1104 -3.00407
rtoes 5.65255
lfemur -24.9889 5.22016 -19.6918
ltibia 34.5289
lfoot -16.036 7.3423
ltoes 2.35682
350
root 0.340199 17.265 -6.82483 8.98854 1.86413 -0.788592
lowerback 5.33483 0.179728 -1.01732
upperback 5.80047 0.183671 1.4871
thorax 2.98313 0.0243002 2.0984
lowerneck -12.7353 -0.711698 -1.81637
upperneck 32.0444 -1.13351 1.83834
head 12.7955 -0.471329 0.864877
rclavicle -9.93923e-017 -4.77083e-015
rhumerus -59.2664 -27.6947 -45.091
rradius 18.4026
rwrist 49.0693
rhand -16.4099 -23.1375
rfingers 7.12502
rthumb 9.80469 -52.8892
lclavicle -9.93923e-017 -4.77083e-015
lhumerus -45.6152 2.21338 74.9456
lradius 16.1913
lwrist 8.99757
lhand -30.2173 -8.60717
lfingers 7.12502
lthumb -3.52728 21.3434
rfemur -25.3557 -3.91832 18.7679
rtibia 37.4113
rfoot -19.111 -2.9476
rtoes 5.69125
lfemur -24.934 5.21111 -19.6802
ltibia 34.4688
lfoot -16.015 7.39685
ltoes 2.33157
